<?xml version="1.0" encoding="utf-8"?>
<!-- Generator: Adobe Illustrator 16.0.0, SVG Export Plug-In . SVG Version: 6.00 Build 0)  -->
<!DOCTYPE svg PUBLIC "-//W3C//DTD SVG 1.1//EN" "http://www.w3.org/Graphics/SVG/1.1/DTD/svg11.dtd">
<svg version="1.1" id="Layer_1" xmlns="http://www.w3.org/2000/svg" xmlns:xlink="http://www.w3.org/1999/xlink" x="0px" y="0px"
	 width="24px" height="24px" viewBox="0 0 24 24" enable-background="new 0 0 24 24" xml:space="preserve">
<g id="Group_15" transform="translate(1136.842 847)">
	<g id="Group_12">
		<path id="Path_42" fill="#C22026" d="M-1124.802-823.523c-6.323,0.001-11.448-5.124-11.449-11.446
			c0-6.322,5.125-11.447,11.447-11.448s11.448,5.125,11.449,11.446c0,0,0,0.001,0,0.002
			C-1113.364-828.651-1118.485-823.53-1124.802-823.523z M-1124.802-845.146c-5.621,0-10.178,4.558-10.178,10.179
			s4.557,10.177,10.178,10.177c5.622,0,10.177-4.556,10.177-10.177C-1114.631-840.586-1119.185-845.139-1124.802-845.146
			L-1124.802-845.146z"/>
	</g>
	<g id="Group_13" transform="translate(9.151 9.151)">
		
			<rect id="Rectangle_26" x="-1139.678" y="-844.757" transform="matrix(-0.7071 0.7071 -0.7071 -0.7071 -2532.6509 -639.0937)" fill="#C22026" width="11.448" height="1.273"/>
	</g>
	<g id="Group_14" transform="translate(9.151 9.151)">
		
			<rect id="Rectangle_27" x="-1134.59" y="-849.845" transform="matrix(-0.7071 0.7071 -0.7071 -0.7071 -2532.6631 -639.178)" fill="#C22026" width="1.273" height="11.448"/>
	</g>
</g>
</svg>
