<?xml version="1.0" encoding="utf-8"?>
<!-- Generator: Adobe Illustrator 16.0.0, SVG Export Plug-In . SVG Version: 6.00 Build 0)  -->
<!DOCTYPE svg PUBLIC "-//W3C//DTD SVG 1.1//EN" "http://www.w3.org/Graphics/SVG/1.1/DTD/svg11.dtd">
<svg version="1.1" id="Layer_1" xmlns="http://www.w3.org/2000/svg" xmlns:xlink="http://www.w3.org/1999/xlink" x="0px" y="0px"
	 width="24px" height="24px" viewBox="0 0 24 24" enable-background="new 0 0 24 24" xml:space="preserve">
<g id="Group_21" transform="translate(464 619.16)">
	<g id="Group_19" transform="translate(6.878 6.109)">
		<g id="Group_17">
			<path id="Path_43" fill="#03B5E1" d="M-464.759-606.402c-0.113-0.002-0.223-0.045-0.306-0.124
				c-0.109-0.11-0.151-0.272-0.111-0.423l1.21-4.237c0.018-0.072,0.058-0.136,0.112-0.188l8.189-8.183
				c0.751-0.753,1.97-0.755,2.722-0.006c0.001,0.001,0.004,0.003,0.006,0.006l0.91,0.91c0.755,0.754,0.755,1.977,0,2.731
				c0,0,0,0,0,0l-8.184,8.179c-0.051,0.052-0.114,0.088-0.182,0.111l-4.246,1.21C-464.678-606.408-464.717-606.402-464.759-606.402z
				 M-463.164-610.846l-0.971,3.397l3.396-0.97l8.101-8.107c0.417-0.417,0.417-1.092,0-1.509l-0.91-0.911
				c-0.42-0.415-1.097-0.415-1.515,0L-463.164-610.846z"/>
		</g>
		<g id="Group_18" transform="translate(10.591 2.267)">
			
				<rect id="Rectangle_28" x="-466.077" y="-620.935" transform="matrix(-0.7063 0.708 -0.708 -0.7063 -1232.5929 -726.153)" fill="#03B5E1" width="0.857" height="4.288"/>
		</g>
	</g>
	<g id="Group_20">
		<path id="Path_44" fill="#03B5E1" d="M-452-595.388c-6.468,0-11.711-5.241-11.711-11.71c0-6.468,5.243-11.711,11.711-11.711
			c6.469,0,11.711,5.243,11.711,11.711C-440.296-600.633-445.534-595.395-452-595.388z M-452-617.507
			c-5.749,0-10.409,4.66-10.409,10.41c0,5.75,4.66,10.408,10.409,10.408c5.75,0,10.409-4.658,10.409-10.408l0,0
			C-441.598-612.844-446.253-617.499-452-617.507z"/>
	</g>
</g>
</svg>
